<?xml version="1.0" standalone="no"?>
<!DOCTYPE svg PUBLIC "-//W3C//DTD SVG 20010904//EN"
 "http://www.w3.org/TR/2001/REC-SVG-20010904/DTD/svg10.dtd">
<svg version="1.0" xmlns="http://www.w3.org/2000/svg"
 width="192.000000pt" height="192.000000pt" viewBox="0 0 192.000000 192.000000"
 preserveAspectRatio="xMidYMid meet">
<metadata>
Created by potrace 1.11, written by Peter Selinger 2001-2013
</metadata>
<g transform="translate(0.000000,192.000000) scale(0.100000,-0.100000)"
fill="#000000" stroke="none">
<path d="M853 1830 c-131 -18 -282 -74 -380 -141 -70 -48 -178 -155 -229 -226
-57 -79 -107 -188 -135 -294 -32 -119 -32 -309 -1 -427 84 -315 310 -543 629
-634 112 -32 334 -32 446 0 211 60 380 179 496 347 199 287 212 652 34 954
-47 80 -167 208 -249 267 -165 118 -416 181 -611 154z m-373 -625 l0 -165 155
0 155 0 0 165 0 165 85 0 85 0 0 -410 0 -410 -85 0 -85 0 0 175 0 175 -155 0
-155 0 0 -175 0 -175 -85 0 -85 0 0 410 0 410 85 0 85 0 0 -165z m930 -80 l0
-105 100 0 100 0 0 -80 0 -80 -100 0 -100 0 0 -115 0 -115 -80 0 -80 0 0 115
0 115 -105 0 -105 0 0 80 0 80 105 0 105 0 0 105 0 105 80 0 80 0 0 -105z"/>
</g>
</svg>
